<?xml version="1.0" encoding="utf-8"?><svg xmlns="http://www.w3.org/2000/svg" xmlns:xlink="http://www.w3.org/1999/xlink"><symbol viewBox="0 0 15 7" id="arrow-down" xmlns="http://www.w3.org/2000/svg"><path d="M15 .437L7.48 7l-.14-.122-.028.025L0 .522.487.096l6.95 6.066L14.5 0z"/><path d="M15 .437L7.48 7l-.14-.122-.028.025L0 .522.487.096l6.95 6.066L14.5 0z"/></symbol><symbol viewBox="0 0 344.96 344.96" id="check" xmlns="http://www.w3.org/2000/svg"><g data-name="Слой 2"><path d="M321.85 86.24l-40-23.11-23.1-40H212.5L172.48 0l-40 23.11H86.24l-23.11 40-40 23.1v46.21L0 172.48l23.11 40v46.21l40 23.11 23.11 40h46.21l40 23.1 40-23.11h46.21l23.11-40 40-23.11V212.5l23.11-40-23.11-40V86.24zM156.91 243.07a16.79 16.79 0 01-23.34 0l-50.45-50.44a16.19 16.19 0 010-22.89l13.35-13.35a16.19 16.19 0 0122.89 0l25.87 25.87 80.34-80.35a16.19 16.19 0 0122.89 0l13.35 13.35a16.19 16.19 0 010 22.89z" data-name="Capa 1"/></g></symbol><symbol viewBox="0 0 482.239 482.239" id="full" xmlns="http://www.w3.org/2000/svg"><path d="M0 17.223v120.56h34.446V34.446h103.337V0H17.223C7.703 0 0 7.703 0 17.223zM465.016 0h-120.56v34.446h103.337v103.337h34.446V17.223c0-9.52-7.703-17.223-17.223-17.223zm-17.223 447.793H344.456v34.446h120.56c9.52 0 17.223-7.703 17.223-17.223v-120.56h-34.446zM34.446 344.456H0v120.56c0 9.52 7.703 17.223 17.223 17.223h120.56v-34.446H34.446z"/></symbol><symbol viewBox="0 0 5 10" id="next" xmlns="http://www.w3.org/2000/svg"><path d="M5 5l-5 5V0l5 5"/></symbol><symbol viewBox="0 0 5 10" id="prev" xmlns="http://www.w3.org/2000/svg"><path d="M0 5l5-5v10L0 5"/></symbol><symbol class="fsvg-inline--fa ffa-star ffa-w-18" viewBox="0 0 576 512" id="star" xmlns="http://www.w3.org/2000/svg"><path d="M259.3 17.8L194 150.2 47.9 171.5c-26.2 3.8-36.7 36.1-17.7 54.6l105.7 103-25 145.5c-4.5 26.3 23.2 46 46.4 33.7L288 439.6l130.7 68.7c23.2 12.2 50.9-7.4 46.4-33.7l-25-145.5 105.7-103c19-18.5 8.5-50.8-17.7-54.6L382 150.2 316.7 17.8c-11.7-23.6-45.6-23.9-57.4 0z"/></symbol></svg>